<svg width="19" height="19" viewBox="0 0 19 19" fill="none" xmlns="http://www.w3.org/2000/svg">
<path d="M2.68423 18.6547C2.37466 18.6503 2.06916 18.5835 1.7861 18.4581C1.50303 18.3326 1.24825 18.1513 1.03704 17.9249C0.625922 17.5506 0.370979 17.0351 0.32304 16.4812C0.267519 15.9085 0.432773 15.3362 0.78504 14.8812C2.37054 13.2144 5.49298 10.0906 7.76491 7.86594C7.28124 6.5586 7.30371 5.11768 7.82791 3.82606C8.25905 2.75177 9.0255 1.84538 10.0132 1.24175C10.7881 0.728338 11.6788 0.416258 12.6046 0.333757C13.5305 0.251255 14.4623 0.400935 15.3157 0.76925L16.1255 1.121L12.3639 4.99419L14.0111 6.64663L17.8751 2.87056L18.2255 3.683C18.5214 4.36785 18.6784 5.10461 18.6874 5.85058C18.6964 6.59655 18.5573 7.33689 18.278 8.02869C18.0007 8.71268 17.5887 9.33398 17.0666 9.85569C16.7707 10.1451 16.4436 10.4009 16.0914 10.6182C15.3632 11.1047 14.53 11.4114 13.6602 11.5131C12.7905 11.6149 11.909 11.5088 11.0882 11.2036C9.64704 12.6631 6.04817 16.2856 4.10567 18.0995C3.71587 18.4533 3.21063 18.651 2.68423 18.6547ZM13.1029 1.5305C12.2393 1.52835 11.3947 1.7828 10.676 2.26156C10.3965 2.43219 10.1353 2.63431 9.90035 2.86269C9.274 3.4939 8.85569 4.30159 8.70156 5.17737C8.54742 6.05314 8.66483 6.95512 9.03804 7.76225L9.21523 8.15206L8.90942 8.45C6.62829 10.6773 3.30635 13.9887 1.71035 15.674C1.56783 15.8859 1.50685 16.1422 1.5387 16.3955C1.57055 16.6489 1.69307 16.8821 1.8836 17.0521C1.99283 17.1741 2.12595 17.2724 2.27473 17.3409C2.40598 17.3986 2.54904 17.4314 2.69342 17.4354C2.91245 17.4298 3.12215 17.3455 3.28404 17.1978C5.3486 15.2697 9.33729 11.2404 10.508 10.0578L10.8099 9.75331L11.1958 9.9305C11.8702 10.2447 12.6144 10.3792 13.3561 10.3208C14.0978 10.2624 14.8117 10.0131 15.4286 9.59713C15.7093 9.42404 15.9695 9.21974 16.2043 8.98812C16.6109 8.58271 16.9324 8.10004 17.1496 7.56854C17.3669 7.03703 17.4757 6.46742 17.4695 5.89325C17.4695 5.61106 17.442 5.32887 17.3855 5.05062L14.0019 8.35156L10.6537 5.00862L13.9547 1.60925C13.6736 1.55475 13.3891 1.52837 13.1029 1.5305Z" fill="black"/>
</svg>
