<svg width="70" height="70" viewBox="0 0 70 70" fill="none" xmlns="http://www.w3.org/2000/svg">
<path fill-rule="evenodd" clip-rule="evenodd" d="M35 8.75001C33.4529 8.75001 31.9692 9.36459 30.8752 10.4586C29.7812 11.5525 29.1667 13.0362 29.1667 14.5833C29.1667 16.1304 29.7812 17.6142 30.8752 18.7081C31.9692 19.8021 33.4529 20.4167 35 20.4167C36.5471 20.4167 38.0308 19.8021 39.1248 18.7081C40.2187 17.6142 40.8333 16.1304 40.8333 14.5833C40.8333 13.0362 40.2187 11.5525 39.1248 10.4586C38.0308 9.36459 36.5471 8.75001 35 8.75001ZM26.25 14.5833C26.25 12.2627 27.1719 10.0371 28.8128 8.39616C30.4538 6.75522 32.6794 5.83334 35 5.83334C37.3206 5.83334 39.5462 6.75522 41.1872 8.39616C42.8281 10.0371 43.75 12.2627 43.75 14.5833C43.75 16.904 42.8281 19.1296 41.1872 20.7705C39.5462 22.4115 37.3206 23.3333 35 23.3333C32.6794 23.3333 30.4538 22.4115 28.8128 20.7705C27.1719 19.1296 26.25 16.904 26.25 14.5833ZM22.3242 28.3821C22.767 27.319 23.5146 26.4107 24.4727 25.7718C25.4308 25.1328 26.5567 24.7918 27.7083 24.7917H42.2917C43.4433 24.7918 44.5691 25.1328 45.5273 25.7718C46.4854 26.4107 47.233 27.319 47.6758 28.3821L51.3217 37.1321C52.8281 40.7444 50.4204 44.7052 46.6667 45.1646V46.5092C46.6667 46.7565 46.7296 46.9998 46.8495 47.2161C46.9694 47.4325 47.1423 47.6148 47.3521 47.7458L55.4429 52.8019C56.5753 53.5096 57.4465 54.5667 57.925 55.8134C58.4035 57.0601 58.4631 58.4287 58.095 59.7123C57.7269 60.9959 56.9509 62.1248 55.8844 62.9284C54.818 63.732 53.5189 64.1667 52.1835 64.1667H17.8106C16.475 64.1668 15.1757 63.7317 14.1095 62.9272C13.0433 62.1227 12.2683 60.9927 11.9019 59.7083C11.5354 58.4239 11.5975 57.0551 12.0788 55.8091C12.56 54.5632 13.4341 53.508 14.5687 52.8033L22.7179 47.7429C22.9286 47.6119 23.1024 47.4293 23.2229 47.2124C23.3433 46.9955 23.4064 46.7515 23.4062 46.5033V45.1719C19.6102 44.7563 17.1631 40.7677 18.6783 37.1306L22.3242 28.3821ZM26.3229 45.2083V46.5033C26.3228 47.2473 26.133 47.979 25.7714 48.6292C25.4098 49.2794 24.8884 49.8266 24.2565 50.2192L16.1087 55.2796C15.5121 55.6494 15.0523 56.2036 14.799 56.8583C14.5458 57.513 14.5129 58.2324 14.7053 58.9074C14.8977 59.5825 15.305 60.1764 15.8654 60.5991C16.4257 61.0219 17.1087 61.2504 17.8106 61.25H43.75C44.1368 61.25 44.5077 61.0964 44.7812 60.8229C45.0547 60.5494 45.2083 60.1784 45.2083 59.7917V59.6021C45.2081 59.2324 45.0674 58.8767 44.8148 58.6067C44.5622 58.3368 44.2165 58.1729 43.8477 58.1481L24.7669 56.8721C24.3809 56.8462 24.021 56.668 23.7664 56.3767C23.5117 56.0855 23.3833 55.705 23.4092 55.319C23.4351 54.933 23.6133 54.5731 23.9045 54.3185C24.1958 54.0638 24.5763 53.9353 24.9623 53.9613L44.0417 55.2373C45.1492 55.3113 46.1872 55.8035 46.9454 56.6142C47.7036 57.4249 48.1252 58.4935 48.125 59.6035V59.7917C48.125 60.3021 48.0375 60.7935 47.8771 61.25H52.1835C52.8856 61.25 53.5685 61.0215 54.1292 60.599C54.6899 60.1765 55.0978 59.583 55.2913 58.9082C55.4849 58.2334 55.4535 57.5139 55.202 56.8585C54.9504 56.203 54.4924 55.6473 53.8971 55.2752L45.8062 50.2177C45.177 49.8244 44.6581 49.2776 44.2984 48.6286C43.9387 47.9796 43.75 47.2497 43.75 46.5077V45.2083H39.7294C38.9631 45.2084 38.2044 45.0574 37.4965 44.7642C36.7886 44.4709 36.1455 44.0411 35.6037 43.4992L35 42.8954L34.3962 43.4992C33.8545 44.0411 33.2114 44.4709 32.5035 44.7642C31.7956 45.0574 31.0369 45.2084 30.2706 45.2083H26.3229ZM36.4583 40.2296L37.6658 41.4371C37.9368 41.7081 38.2585 41.9231 38.6126 42.0697C38.9666 42.2164 39.3461 42.2918 39.7294 42.2917H45.9375C46.4178 42.2917 46.8906 42.1731 47.3141 41.9465C47.7375 41.7199 48.0985 41.3921 48.3648 40.9925C48.6312 40.5928 48.7947 40.1336 48.8409 39.6555C48.8871 39.1774 48.8145 38.6954 48.6296 38.2521L44.9837 29.5021C44.7621 28.9708 44.3882 28.517 43.9092 28.1978C43.4301 27.8786 42.8673 27.7083 42.2917 27.7083H27.7083C27.1327 27.7083 26.5699 27.8786 26.0908 28.1978C25.6118 28.517 25.2379 28.9708 25.0162 29.5021L21.3704 38.2521C21.1855 38.6954 21.1129 39.1774 21.1591 39.6555C21.2053 40.1336 21.3688 40.5928 21.6352 40.9925C21.9015 41.3921 22.2624 41.7199 22.6859 41.9465C23.1093 42.1731 23.5822 42.2917 24.0625 42.2917H30.2706C30.6539 42.2918 31.0334 42.2164 31.3874 42.0697C31.7415 41.9231 32.0632 41.7081 32.3342 41.4371L33.5417 40.2296V36.8463C33.2121 37.0358 32.9146 37.2954 32.6667 37.625L31.7917 38.7917C31.6558 38.9728 31.4797 39.1198 31.2772 39.221C31.0747 39.3223 30.8514 39.375 30.625 39.375H26.25C26.0015 39.3749 25.7572 39.3113 25.5402 39.1902C25.3232 39.0691 25.1407 38.8946 25.0101 38.6832C24.8795 38.4718 24.8051 38.2305 24.7939 37.9823C24.7827 37.7341 24.8352 37.4871 24.9462 37.2648L26.4046 34.3481C26.4865 34.1708 26.6032 34.0118 26.7477 33.8804C26.8922 33.7491 27.0617 33.6481 27.246 33.5835C27.4303 33.5189 27.6257 33.4919 27.8206 33.5043C28.0155 33.5166 28.206 33.568 28.3807 33.6553C28.5554 33.7427 28.7107 33.8642 28.8375 34.0127C28.9644 34.1613 29.0601 34.3338 29.1189 34.52C29.1778 34.7062 29.1987 34.9023 29.1804 35.0968C29.162 35.2912 29.1048 35.48 29.0121 35.6519L28.6096 36.4583H29.8958L30.3333 35.875C32.6667 32.7644 37.3333 32.7644 39.6667 35.875L40.1042 36.4583H41.3904L40.9879 35.6519C40.8952 35.48 40.838 35.2912 40.8196 35.0968C40.8013 34.9023 40.8222 34.7062 40.8811 34.52C40.9399 34.3338 41.0356 34.1613 41.1625 34.0127C41.2893 33.8642 41.4446 33.7427 41.6193 33.6553C41.794 33.568 41.9845 33.5166 42.1794 33.5043C42.3743 33.4919 42.5697 33.5189 42.754 33.5835C42.9383 33.6481 43.1078 33.7491 43.2523 33.8804C43.3968 34.0118 43.5135 34.1708 43.5954 34.3481L45.0537 37.2648C45.1648 37.4871 45.2173 37.7341 45.2061 37.9823C45.1949 38.2305 45.1205 38.4718 44.9899 38.6832C44.8593 38.8946 44.6768 39.0691 44.4598 39.1902C44.2428 39.3113 43.9985 39.3749 43.75 39.375H39.375C39.1486 39.375 38.9253 39.3223 38.7228 39.221C38.5203 39.1198 38.3442 38.9728 38.2083 38.7917L37.3333 37.625C37.0975 37.3088 36.7998 37.0438 36.4583 36.8463V40.2296Z" fill="#7E2985"/>
</svg>
