<svg width="58" height="57" viewBox="0 0 58 57" fill="none" xmlns="http://www.w3.org/2000/svg">
<path fill-rule="evenodd" clip-rule="evenodd" d="M29 7.125C27.7181 7.125 26.4888 7.62544 25.5823 8.51624C24.6759 9.40704 24.1667 10.6152 24.1667 11.875C24.1667 13.1348 24.6759 14.343 25.5823 15.2338C26.4888 16.1246 27.7181 16.625 29 16.625C30.2819 16.625 31.5113 16.1246 32.4177 15.2338C33.3241 14.343 33.8334 13.1348 33.8334 11.875C33.8334 10.6152 33.3241 9.40704 32.4177 8.51624C31.5113 7.62544 30.2819 7.125 29 7.125ZM21.75 11.875C21.75 9.98533 22.5139 8.17306 23.8735 6.83686C25.2331 5.50067 27.0772 4.75 29 4.75C30.9228 4.75 32.7669 5.50067 34.1266 6.83686C35.4862 8.17306 36.25 9.98533 36.25 11.875C36.25 13.7647 35.4862 15.5769 34.1266 16.9131C32.7669 18.2493 30.9228 19 29 19C27.0772 19 25.2331 18.2493 23.8735 16.9131C22.5139 15.5769 21.75 13.7647 21.75 11.875ZM18.4972 23.1111C18.8641 22.2454 19.4835 21.5059 20.2774 20.9856C21.0713 20.4653 22.0041 20.1876 22.9584 20.1875H35.0417C35.9959 20.1876 36.9288 20.4653 37.7226 20.9856C38.5165 21.5059 39.136 22.2454 39.5029 23.1111L42.5237 30.2361C43.7719 33.1776 41.7769 36.4028 38.6667 36.7769V37.8717C38.6667 38.0732 38.7188 38.2713 38.8182 38.4474C38.9175 38.6236 39.0608 38.772 39.2346 38.8788L45.9384 42.9958C46.8767 43.5721 47.5986 44.4329 47.995 45.4481C48.3915 46.4632 48.4409 47.5776 48.1359 48.6228C47.8309 49.6681 47.1879 50.5873 46.3043 51.2417C45.4206 51.8961 44.3443 52.25 43.2378 52.25H14.7574C13.6507 52.2501 12.5742 51.8958 11.6907 51.2407C10.8073 50.5856 10.1652 49.6655 9.86159 48.6196C9.55797 47.5737 9.60942 46.4591 10.0081 45.4446C10.4069 44.43 11.1311 43.5708 12.0713 42.997L18.8234 38.8764C18.998 38.7697 19.142 38.621 19.2418 38.4444C19.3416 38.2678 19.3939 38.069 19.3938 37.867V36.7828C16.2485 36.4444 14.2209 33.1966 15.4764 30.2349L18.4972 23.1111ZM21.8104 36.8125V37.867C21.8104 38.4728 21.6531 39.0686 21.3535 39.598C21.0539 40.1275 20.6219 40.5731 20.0982 40.8927L13.3473 45.0134C12.8529 45.3145 12.4719 45.7658 12.2621 46.2989C12.0522 46.832 12.025 47.4178 12.1844 47.9675C12.3438 48.5172 12.6813 49.0008 13.1456 49.345C13.6099 49.6892 14.1758 49.8753 14.7574 49.875H36.25C36.5705 49.875 36.8778 49.7499 37.1044 49.5272C37.3311 49.3045 37.4584 49.0024 37.4584 48.6875V48.5331C37.4581 48.2321 37.3416 47.9424 37.1323 47.7226C36.923 47.5028 36.6366 47.3694 36.331 47.3492L20.5212 46.3101C20.2013 46.289 19.9031 46.1439 19.6922 45.9068C19.4812 45.6696 19.3747 45.3597 19.3962 45.0454C19.4177 44.7311 19.5653 44.4381 19.8066 44.2307C20.048 44.0234 20.3632 43.9188 20.6831 43.9399L36.4917 44.9789C37.4094 45.0392 38.2694 45.44 38.8976 46.1002C39.5258 46.7603 39.8752 47.6305 39.875 48.5343V48.6875C39.875 49.1031 39.8025 49.5033 39.6696 49.875H43.2378C43.8195 49.875 44.3854 49.6889 44.8499 49.3449C45.3145 49.0009 45.6525 48.5176 45.8129 47.9681C45.9732 47.4186 45.9472 46.8327 45.7388 46.299C45.5304 45.7653 45.1509 45.3128 44.6576 45.0098L37.9538 40.8916C37.4324 40.5713 37.0025 40.126 36.7044 39.5975C36.4064 39.0691 36.25 38.4748 36.25 37.8706V36.8125H32.9187C32.2838 36.8125 31.6551 36.6896 31.0686 36.4508C30.482 36.212 29.9491 35.862 29.5003 35.4207L29 34.9291L28.4998 35.4207C28.0509 35.862 27.518 36.212 26.9315 36.4508C26.3449 36.6896 25.7163 36.8125 25.0814 36.8125H21.8104ZM30.2084 32.7584L31.2089 33.7416C31.4334 33.9623 31.6999 34.1374 31.9933 34.2568C32.2867 34.3762 32.6011 34.4376 32.9187 34.4375H38.0625C38.4605 34.4375 38.8523 34.341 39.2031 34.1564C39.554 33.9719 39.8531 33.705 40.0737 33.3796C40.2944 33.0541 40.4299 32.6802 40.4682 32.2909C40.5065 31.9016 40.4463 31.5091 40.2931 31.1481L37.2723 24.0231C37.0886 23.5905 36.7789 23.221 36.3819 22.9611C35.985 22.7011 35.5187 22.5625 35.0417 22.5625H22.9584C22.4814 22.5625 22.0151 22.7011 21.6181 22.9611C21.2212 23.221 20.9114 23.5905 20.7278 24.0231L17.7069 31.1481C17.5537 31.5091 17.4936 31.9016 17.5319 32.2909C17.5701 32.6802 17.7056 33.0541 17.9263 33.3796C18.147 33.705 18.4461 33.9719 18.7969 34.1564C19.1478 34.341 19.5396 34.4375 19.9375 34.4375H25.0814C25.3989 34.4376 25.7134 34.3762 26.0068 34.2568C26.3001 34.1374 26.5667 33.9623 26.7912 33.7416L27.7917 32.7584V30.0034C27.5186 30.1578 27.2721 30.3691 27.0667 30.6375L26.3417 31.5875C26.2291 31.735 26.0832 31.8547 25.9154 31.9371C25.7476 32.0196 25.5626 32.0625 25.375 32.0625H21.75C21.5441 32.0624 21.3417 32.0106 21.1619 31.912C20.9821 31.8134 20.8309 31.6713 20.7227 31.4992C20.6145 31.327 20.5528 31.1306 20.5436 30.9284C20.5343 30.7263 20.5777 30.5252 20.6698 30.3442L21.8781 27.9692C21.946 27.8248 22.0427 27.6953 22.1624 27.5884C22.2822 27.4814 22.4226 27.3992 22.5753 27.3466C22.728 27.2939 22.8899 27.272 23.0514 27.282C23.2129 27.2921 23.3707 27.3339 23.5154 27.405C23.6602 27.4762 23.7889 27.5751 23.894 27.6961C23.9991 27.817 24.0784 27.9575 24.1272 28.1091C24.176 28.2607 24.1933 28.4205 24.178 28.5788C24.1628 28.7371 24.1154 28.8908 24.0386 29.0308L23.7051 29.6875H24.7709L25.1334 29.2125C27.0667 26.6796 30.9334 26.6796 32.8667 29.2125L33.2292 29.6875H34.2949L33.9614 29.0308C33.8846 28.8908 33.8372 28.7371 33.822 28.5788C33.8068 28.4205 33.8241 28.2607 33.8729 28.1091C33.9217 27.9575 34.001 27.817 34.1061 27.6961C34.2111 27.5751 34.3399 27.4762 34.4846 27.405C34.6293 27.3339 34.7872 27.2921 34.9487 27.282C35.1102 27.272 35.2721 27.2939 35.4248 27.3466C35.5775 27.3992 35.7179 27.4814 35.8376 27.5884C35.9574 27.6953 36.0541 27.8248 36.1219 27.9692L37.3303 30.3442C37.4223 30.5252 37.4658 30.7263 37.4565 30.9284C37.4472 31.1306 37.3856 31.327 37.2773 31.4992C37.1691 31.6713 37.018 31.8134 36.8382 31.912C36.6584 32.0106 36.4559 32.0624 36.25 32.0625H32.625C32.4374 32.0625 32.2524 32.0196 32.0846 31.9371C31.9169 31.8547 31.7709 31.735 31.6584 31.5875L30.9334 30.6375C30.738 30.38 30.4913 30.1642 30.2084 30.0034V32.7584Z" fill="#EB217C"/>
</svg>
