<svg width="37" height="40" viewBox="0 0 37 40" fill="none" xmlns="http://www.w3.org/2000/svg">
<rect x="0.9" y="0.9" width="35.2" height="38.2" rx="3.1" stroke="#EB217C" stroke-width="1.8"/>
<rect x="5.36582" y="5.41614" width="23.7172" height="2.71613" rx="1.35806" stroke="#EB217C" stroke-width="1.8"/>
<rect x="5.36582" y="15.0935" width="16.7" height="2.71613" rx="1.35806" stroke="#EB217C" stroke-width="1.8"/>
<rect x="5.525" y="24.2871" width="25.95" height="9.89355" rx="3.1" stroke="#EB217C" stroke-width="1.8"/>
<path d="M30.2043 33.1138C30.6815 33.2527 31.2437 33.0025 31.46 32.5549C31.6763 32.1074 31.4647 31.632 30.9874 31.4931L30.2043 33.1138ZM4.5889 25.6591L30.2043 33.1138L30.9874 31.4931L5.37204 24.0384L4.5889 25.6591Z" fill="#EB217C"/>
<path d="M30.9873 25.6591C31.4645 25.5202 31.6761 25.0448 31.4599 24.5973C31.2436 24.1498 30.6814 23.8995 30.2041 24.0384L30.9873 25.6591ZM30.2041 24.0384L4.58875 31.4931L5.37189 33.1138L30.9873 25.6591L30.2041 24.0384Z" fill="#EB217C"/>
</svg>
