<svg width="56" height="56" viewBox="0 0 56 56" fill="none" xmlns="http://www.w3.org/2000/svg">
<path d="M28 40.4997C29.7681 40.4997 31.4637 39.7973 32.7139 38.5471M28 40.4997C26.232 40.4997 24.5364 39.7973 23.2862 38.5471M28 40.4997V45.5M32.7139 38.5471C33.964 37.297 34.6664 35.6014 34.6664 33.8333M32.7139 38.5471L36.2507 42.084M34.6664 33.8333C34.6664 32.0653 33.964 30.3697 32.7139 29.1195M34.6664 33.8333H39.6667M32.7139 29.1195C31.4637 27.8693 29.7681 27.167 28 27.167M32.7139 29.1195L36.2507 25.5827M28 27.167C26.232 27.167 24.5364 27.8693 23.2862 29.1195M28 27.167V22.1667M23.2862 29.1195C22.036 30.3697 21.3337 32.0653 21.3337 33.8333M23.2862 29.1195L19.7494 25.5827M21.3337 33.8333C21.3337 35.6014 22.036 37.297 23.2862 38.5471M21.3337 33.8333H16.3334M23.2862 38.5471L19.7494 42.084M26.8894 22.1667H29.1107M35.4644 24.7987L37.0347 26.369M39.6667 32.7227V34.944M37.0347 41.2977L35.4644 42.868M29.1107 45.5H26.8894M20.5357 42.868L18.9654 41.2977M16.3334 34.944V32.7227M18.9654 26.369L20.5357 24.7987" stroke="#7F2A86" stroke-width="2.5" stroke-linecap="round" stroke-linejoin="round"/>
<path d="M49.3897 15.1667H6.61037C4.24904 15.1667 2.33337 17.08 2.33337 19.4437V49.3897C2.33337 51.751 4.24671 53.6667 6.61037 53.6667H49.3897C51.751 53.6667 53.6667 51.7534 53.6667 49.3897V19.4437C53.6667 17.0824 51.7534 15.1667 49.3897 15.1667Z" stroke="#7F2A86" stroke-width="2.5" stroke-linecap="round" stroke-linejoin="round"/>
<path d="M52.2854 16.2983L44.2424 4.23734C43.8514 3.65145 43.3219 3.17113 42.7007 2.83899C42.0796 2.50685 41.3861 2.33316 40.6817 2.33334H15.3184C14.614 2.33316 13.9205 2.50685 13.2994 2.83899C12.6782 3.17113 12.1487 3.65145 11.7577 4.23734L3.71472 16.2983M28.0001 2.33334V15.1667" stroke="#7F2A86" stroke-width="2.5" stroke-linecap="round" stroke-linejoin="round"/>
</svg>
