<svg width="60" height="60" viewBox="0 0 60 60" fill="none" xmlns="http://www.w3.org/2000/svg">
<path d="M30 43.3925C31.8943 43.3925 33.711 42.64 35.0505 41.3005M30 43.3925C28.1057 43.3925 26.289 42.64 24.9495 41.3005M30 43.3925V48.75M35.0505 41.3005C36.39 39.961 37.1425 38.1443 37.1425 36.25M35.0505 41.3005L38.84 45.09M37.1425 36.25C37.1425 34.3557 36.39 32.539 35.0505 31.1995M37.1425 36.25H42.5M35.0505 31.1995C33.711 29.86 31.8943 29.1075 30 29.1075M35.0505 31.1995L38.84 27.41M30 29.1075C28.1057 29.1075 26.289 29.86 24.9495 31.1995M30 29.1075V23.75M24.9495 31.1995C23.61 32.539 22.8575 34.3557 22.8575 36.25M24.9495 31.1995L21.16 27.41M22.8575 36.25C22.8575 38.1443 23.61 39.961 24.9495 41.3005M22.8575 36.25H17.5M24.9495 41.3005L21.16 45.09M28.81 23.75H31.19M37.9975 26.57L39.68 28.2525M42.5 35.06V37.44M39.68 44.2475L37.9975 45.93M31.19 48.75H28.81M22.0025 45.93L20.32 44.2475M17.5 37.44V35.06M20.32 28.2525L22.0025 26.57" stroke="#d9045b" stroke-width="2.5" stroke-linecap="round" stroke-linejoin="round"/>
<path d="M52.9175 16.25H7.0825C4.5525 16.25 2.5 18.3 2.5 20.8325V52.9175C2.5 55.4475 4.55 57.5 7.0825 57.5H52.9175C55.4475 57.5 57.5 55.45 57.5 52.9175V20.8325C57.5 18.3025 55.45 16.25 52.9175 16.25Z" stroke="#d9045b" stroke-width="2.5" stroke-linecap="round" stroke-linejoin="round"/>
<path d="M56.02 17.4625L47.4025 4.54C46.9836 3.91226 46.4162 3.39763 45.7507 3.04176C45.0852 2.6859 44.3421 2.49981 43.5875 2.5H16.4125C15.6578 2.49981 14.9148 2.6859 14.2493 3.04176C13.5837 3.39763 13.0164 3.91226 12.5975 4.54L3.97998 17.4625M30 2.5V16.25" stroke="#d9045b" stroke-width="2.5" stroke-linecap="round" stroke-linejoin="round"/>
</svg>
