<svg width="21" height="20" viewBox="0 0 21 20" fill="none" xmlns="http://www.w3.org/2000/svg">
<g clip-path="url(#clip0_25_312)">
<path fill-rule="evenodd" clip-rule="evenodd" d="M9.1876 1.66666C8.00162 1.66675 6.83286 1.93696 5.77882 2.45473C4.72479 2.97251 3.81606 3.72284 3.12843 4.64312C2.44081 5.5634 1.99423 6.62695 1.82597 7.74503C1.65771 8.86311 1.77263 10.0033 2.16116 11.0705C2.54968 12.1377 3.20054 13.1009 4.05943 13.8798C4.91832 14.6587 5.96034 15.2306 7.09855 15.548C8.23676 15.8653 9.43815 15.9189 10.6025 15.7041C11.7668 15.4893 12.8604 15.0125 13.7918 14.3133L16.9873 17.3567C17.1524 17.5085 17.3734 17.5924 17.6028 17.5905C17.8322 17.5887 18.0517 17.501 18.2139 17.3465C18.3762 17.192 18.4682 16.983 18.4702 16.7645C18.4722 16.546 18.384 16.3355 18.2246 16.1783L15.0291 13.135C15.8936 12.0905 16.4319 10.8353 16.5823 9.51309C16.7328 8.19086 16.4893 6.85501 15.8798 5.6584C15.2703 4.46179 14.3194 3.45279 13.1359 2.74685C11.9524 2.04091 10.5841 1.66657 9.1876 1.66666ZM3.5001 8.74999C3.5001 7.3134 4.09932 5.93565 5.16593 4.91983C6.23254 3.90401 7.67918 3.33332 9.1876 3.33332C10.696 3.33332 12.1427 3.90401 13.2093 4.91983C14.2759 5.93565 14.8751 7.3134 14.8751 8.74999C14.8751 10.1866 14.2759 11.5643 13.2093 12.5802C12.1427 13.596 10.696 14.1667 9.1876 14.1667C7.67918 14.1667 6.23254 13.596 5.16593 12.5802C4.09932 11.5643 3.5001 10.1866 3.5001 8.74999Z" fill="#EB217C"/>
</g>
<defs>
<clipPath id="clip0_25_312">
<rect width="21" height="20" fill="white"/>
</clipPath>
</defs>
</svg>
