<svg width="50" height="53" viewBox="0 0 50 53" fill="none" xmlns="http://www.w3.org/2000/svg">
<rect x="0.9" y="0.9" width="47.7806" height="51.2" rx="3.1" stroke="#7F2A86" stroke-width="1.8"/>
<rect x="6.88389" y="6.88386" width="32.3936" height="4.18387" rx="2.09194" stroke="#7F2A86" stroke-width="1.8"/>
<rect x="6.88389" y="19.7065" width="22.9903" height="4.18387" rx="2.09194" stroke="#7F2A86" stroke-width="1.8"/>
<rect x="7.09763" y="31.8879" width="35.3855" height="13.694" rx="3.1" stroke="#7F2A86" stroke-width="1.8"/>
<path d="M40.604 43.6107C41.0817 43.7481 41.6458 43.4975 41.864 43.0509C42.0823 42.6043 41.872 42.1309 41.3943 41.9934L40.604 43.6107ZM6.27891 33.7333L40.604 43.6107L41.3943 41.9934L7.06923 32.116L6.27891 33.7333Z" fill="#7F2A86"/>
<path d="M41.3943 33.7333C41.872 33.5958 42.0823 33.1224 41.864 32.6758C41.6458 32.2292 41.0817 31.9786 40.604 32.116L41.3943 33.7333ZM40.604 32.116L6.27893 41.9934L7.06924 43.6107L41.3943 33.7333L40.604 32.116Z" fill="#7F2A86"/>
</svg>
